<?xml version="1.0" encoding="UTF-8" standalone="no"?><!DOCTYPE svg PUBLIC "-//W3C//DTD SVG 1.1//EN" "http://www.w3.org/Graphics/SVG/1.1/DTD/svg11.dtd"><svg width="100%" height="100%" viewBox="0 0 90 91" version="1.1" xmlns="http://www.w3.org/2000/svg" xmlns:xlink="http://www.w3.org/1999/xlink" xml:space="preserve" xmlns:serif="http://www.serif.com/" style="fill-rule:evenodd;clip-rule:evenodd;stroke-linejoin:round;stroke-miterlimit:1.41421;"><g><path d="M40,60.855l-20,10l0,-20l20,10Z" style="fill:#1c1c1c;"/><path d="M42.368,50.855c-0.638,0 -1.254,-0.257 -1.701,-0.721c-0.522,-0.539 -0.759,-1.292 -0.635,-2.034l1.113,-6.696c0.081,-0.485 0.313,-0.934 0.661,-1.282l37.578,-39.428c0.921,-0.925 2.422,-0.925 3.344,0l5.773,5.774c0.444,0.443 0.692,1.043 0.692,1.673c0,0.628 -0.248,1.229 -0.692,1.673l-37.573,39.426c-0.368,0.369 -0.847,0.604 -1.36,0.673l-6.886,0.923c-0.107,0.011 -0.211,0.019 -0.314,0.019Zm3.322,-7.922l-0.463,2.787l2.921,-0.391l35.337,-37.186l-2.43,-2.429l-35.365,37.219Z" style="fill:#006df0;fill-rule:nonzero;"/><path d="M80,52.453c0,10.185 -4.046,19.952 -11.248,27.154c-7.201,7.202 -16.969,11.248 -27.153,11.248c-1.161,0 -2.324,0 -3.484,0c-21.05,0 -38.115,-17.065 -38.115,-38.115c0,-1.204 0,-2.411 0,-3.615c0,-10.15 4.032,-19.884 11.209,-27.061c7.177,-7.177 16.912,-11.209 27.061,-11.209c14.92,0 28.511,0 28.511,0l0,3.088c0,0 -12.818,0 -26.954,0c-20.29,0 -36.738,16.449 -36.738,36.739c0,0.13 0,0.261 0,0.392c0,9.731 3.865,19.064 10.746,25.945c6.882,6.881 16.215,10.747 25.946,10.747c0.091,0 0.182,0 0.273,0c9.775,0 19.15,-3.883 26.062,-10.795c6.912,-6.912 10.795,-16.287 10.795,-26.062c0,-13.816 0,-26.231 0,-26.231l3.089,0l0,27.775Z" style="fill:#006df0;fill-rule:nonzero;"/></g></svg>